<?xml version="1.0" encoding="UTF-8" standalone="no"?>
<svg width="1024" height="1024" xmlns="http://www.w3.org/2000/svg">
  <!-- Background -->
  <rect x="0" y="0" width="1024" height="1024" rx="220" fill="#219EBC" />
  
  <!-- Open book -->
  <g transform="translate(200, 300) scale(0.65)">
    <!-- Left page -->
    <path d="M100,100 L400,50 L400,650 L100,700 Z" fill="#ffffff" stroke="#333333" stroke-width="15" />
    <!-- Right page -->
    <path d="M400,50 L700,100 L700,700 L400,650 Z" fill="#ffffff" stroke="#333333" stroke-width="15" />
    <!-- Binding -->
    <path d="M400,50 C400,50 370,55 370,70 C370,85 400,90 400,90 L400,650 C400,650 370,645 370,630 C370,615 400,610 400,610 Z" fill="#FFB703" stroke="#333333" stroke-width="10" />
  </g>
  
  <!-- Stars around the book -->
  <circle cx="250" cy="250" r="20" fill="#FFD166" />
  <circle cx="750" cy="350" r="25" fill="#FFD166" />
  <circle cx="680" cy="180" r="15" fill="#FFD166" />
  <circle cx="310" cy="780" r="18" fill="#FFD166" />
  <circle cx="800" cy="700" r="22" fill="#FFD166" />
  
  <!-- Text on the book (representing stories) -->
  <g transform="translate(340, 450) rotate(-5)">
    <rect x="0" y="0" width="120" height="15" rx="5" fill="#333333" />
    <rect x="0" y="25" width="80" height="15" rx="5" fill="#333333" />
    <rect x="0" y="50" width="100" height="15" rx="5" fill="#333333" />
  </g>
  <g transform="translate(550, 475) rotate(5)">
    <rect x="0" y="0" width="120" height="15" rx="5" fill="#333333" />
    <rect x="0" y="25" width="90" height="15" rx="5" fill="#333333" />
    <rect x="0" y="50" width="110" height="15" rx="5" fill="#333333" />
  </g>
</svg>
